# xmcd
#
# Track frame offsets:
#	150
#	9982
#	23234
#	41603
#	50924
#	64709
#	81615
#	98026
#	113086
#	132572
#	149309
#	163334
#	175709
#	188754
#	200416
#	216532
#	237401
#	250949
#	264812
#	279709
#
# Disc length: 3897 seconds
#
# Revision: 1
# Processed by: cddbd v1.5.2PL0 Copyright (c) Steve Scherf et al.
# Submitted via: audiograbber 1.83.01
#
DISCID=2c0f3714
DTITLE=Various Artist - 100 Hits Country - CD1
DYEAR=2007
DGENRE=Country
TTITLE0=Waylon Jennings - Good Ol' Boys
TTITLE1=Dolly Partin - Here You Come Again
TTITLE2=Billy Swan - I Can Help
TTITLE3=Frankie Lane - Rawhide
TTITLE4=Jimmy Dean - Big Bad John
TTITLE5=Tom T. Hall - Mr Bojangles
TTITLE6=Charlie Daniels Band - The Devil Went Down To Georgia
TTITLE7=Brokks and Dunn - Boot Scootin' Boogie
TTITLE8=Alan Jackson - Gone Country
TTITLE9=Keith Whitley - When You Say Nothing At All
TTITLE10=Glen Campbell - Tennessee
TTITLE11=Curtis Day - The Cowboy Stomp
TTITLE12=Eddie Rabbitt - Every Which Way But Loose
TTITLE13=Travis Tritt - Here's A Quarter (Call Someone Who Cares)
TTITLE14=Linda Ronsatdt - Desperado
TTITLE15=K.D. Lang - Constant Craving
TTITLE16=Tammy Wynette - D.i.v.o.r.c.e.
TTITLE17=John ANderson - Swingin'
TTITLE18=Eric Weissberg and Deliverance - Dueling Banjos
TTITLE19=Dwight Yoakam - Honky Tonk Man
EXTD=
EXTT0=
EXTT1=
EXTT2=
EXTT3=
EXTT4=
EXTT5=
EXTT6=
EXTT7=
EXTT8=
EXTT9=
EXTT10=
EXTT11=
EXTT12=
EXTT13=
EXTT14=
EXTT15=
EXTT16=
EXTT17=
EXTT18=
EXTT19=
PLAYORDER=
